<?xml version="1.0" encoding="UTF-8"?>
<svg version="1.1" xmlns="http://www.w3.org/2000/svg" width="340" height="341">
<path d="M0 0 C112.2 0 224.4 0 340 0 C340 112.53 340 225.06 340 341 C227.8 341 115.6 341 0 341 C0 228.47 0 115.94 0 0 Z " fill="#E1D9C9" transform="translate(0,0)"/>
<path d="M0 0 C66.33 0 132.66 0 201 0 C199.36641492 4.08396269 198.12807106 6.42551949 195.5625 9.8125 C192.28088624 14.23299224 189.10482728 18.7037482 186 23.25 C182.15545922 28.87181745 178.28245053 34.47249612 174.38476562 40.05761719 C168.02925399 49.1647133 161.73125272 58.30740228 155.5 67.5 C148.62043842 77.64900934 141.6480148 87.72956806 134.6328125 97.78515625 C131.56943767 102.17715688 128.52714722 106.58297645 125.5 111 C120.33812962 118.52994493 115.12004024 126.02038916 109.90234375 133.51171875 C106.08428476 138.9961033 102.27847717 144.48827642 98.5 150 C93.33801536 157.5298675 88.12004103 165.02038802 82.90234375 172.51171875 C79.08428476 177.9961033 75.27847717 183.48827642 71.5 189 C66.33801536 196.5298675 61.12004103 204.02038802 55.90234375 211.51171875 C51.69236934 217.55906339 47.50193865 223.61902215 43.33691406 229.6973877 C39.13749435 235.81736541 34.89697556 241.90860275 30.65625 248 C29.91793945 249.06089844 29.17962891 250.12179687 28.41894531 251.21484375 C26.61283168 253.81003616 24.8065118 256.40508475 23 259 C40.44635617 259.07018 57.89266809 259.12303213 75.33913326 259.15543652 C83.44041102 259.17088448 91.54160091 259.19193424 99.64282227 259.22631836 C106.706467 259.25628431 113.77004807 259.27559005 120.8337546 259.28226548 C124.57157657 259.2861656 128.30921647 259.29528783 132.0469799 259.31719017 C136.22663211 259.34148165 140.40597072 259.34196539 144.58569336 259.34057617 C145.81568558 259.351362 147.0456778 259.36214783 148.3129425 259.3732605 C158.35529561 259.33719395 167.08925829 257.80465147 174.5234375 250.50390625 C178.52965868 246.10113019 181.28024769 241.26403673 184 236 C184.39960938 235.3090625 184.79921875 234.618125 185.2109375 233.90625 C189.70412542 225.7784451 191.92008122 216.79610152 194.41503906 207.90429688 C195 206 195 206 196 204 C198.64 204 201.28 204 204 204 C203.3809643 212.46459624 202.15910052 220.76307994 200.75 229.12890625 C200.52936202 230.45356485 200.30898939 231.77826768 200.08886719 233.10301208 C199.63083723 235.85402588 199.17000633 238.60455056 198.70703125 241.35473633 C198.11356074 244.88118651 197.52671311 248.40870146 196.9418335 251.93658543 C196.48957504 254.66068209 196.03416675 257.38424463 195.57775879 260.10764885 C195.25430224 262.04069512 194.93328692 263.97414936 194.61230469 265.90760803 C194.31694824 267.6559922 194.31694824 267.6559922 194.015625 269.43969727 C193.84321289 270.46797134 193.67080078 271.49624542 193.49316406 272.55567932 C193 275 193 275 192 277 C166.42607613 277.25737348 140.85234737 277.45113893 115.27738762 277.56993389 C103.40144336 277.62656779 91.52630546 277.7037291 79.65087891 277.82983398 C69.29583493 277.9397412 58.94137513 278.01050325 48.58576405 278.03497344 C43.10611118 278.04927009 37.62812894 278.08267948 32.14901352 278.16303062 C26.98239019 278.23817904 21.81811133 278.26063308 16.65099335 278.24418449 C14.76360159 278.24718956 12.87612446 278.26878929 10.98920822 278.31126022 C-1.05148069 278.5687831 -8.35594356 276.97957349 -17.33939934 268.65531635 C-18.21739756 267.77906196 -19.09539577 266.90280756 -20 266 C-20.92664554 265.0839576 -20.92664554 265.0839576 -21.87201118 264.14940929 C-22.24424749 263.77010423 -22.6164838 263.39079916 -23 263 C-21.62374249 259.11453169 -19.82598841 256.15858034 -17.3515625 252.87109375 C-13.24638533 247.34233215 -9.29385344 241.72432327 -5.375 236.0625 C-3.96899171 234.03629058 -2.56273723 232.01025199 -1.15625 229.984375 C-0.45886719 228.97955078 0.23851563 227.97472656 0.95703125 226.93945312 C4.00304393 222.55680582 7.06259511 218.1837029 10.125 213.8125 C10.69428223 212.99982666 11.26356445 212.18715332 11.85009766 211.34985352 C12.99404614 209.7170562 14.13808864 208.08432474 15.28222656 206.45166016 C18.18962089 202.30213573 21.09470708 198.15099586 24 194 C27.47545225 189.03437749 30.95131432 184.06904576 34.4296875 179.10546875 C41.31879526 169.27283313 48.18625662 159.425449 55.03857422 149.56713867 C59.91476547 142.55401102 64.8088249 135.55361744 69.7109375 128.55859375 C74.15431548 122.2152193 78.57966998 115.85945204 83 109.5 C89.74067513 99.80310125 96.50481404 90.12290797 103.28222656 80.45166016 C106.77138953 75.47181728 110.25755228 70.48987315 113.74389648 65.50805664 C116.69571964 61.29039917 119.64910481 57.07385112 122.60546875 52.859375 C123.20552734 52.0034375 123.80558594 51.1475 124.42382812 50.265625 C125.53782322 48.67667076 126.65233765 47.08808038 127.76757812 45.5 C131.45083722 40.24467337 135.09401305 34.96244924 138.7277832 29.67285156 C139.23598854 28.93334259 139.74419388 28.19383362 140.26779938 27.43191528 C141.51200897 25.62137485 142.75607216 23.81073401 144 22 C129.3875412 21.95322378 114.77509234 21.91798364 100.16257381 21.89637566 C93.37731863 21.88607483 86.59211004 21.87203739 79.80688477 21.84912109 C73.25816078 21.82701415 66.70946702 21.81542913 60.16070747 21.81024551 C57.66288046 21.80655163 55.16505608 21.79933844 52.66724968 21.78853989 C49.16734987 21.77401153 45.66764974 21.77202265 42.16772461 21.77294922 C41.13625809 21.76575867 40.10479156 21.75856812 39.04206848 21.75115967 C28.93134163 21.78010289 22.45306636 23.92590311 15 31 C9.8241437 36.97516576 8.02120394 44.50965599 6 52 C5.81050781 52.6290625 5.62101562 53.258125 5.42578125 53.90625 C4.76459975 57.15756452 4.62806637 60.44476685 4.4375 63.75 C4.39431641 64.44738281 4.35113281 65.14476563 4.30664062 65.86328125 C4.20110404 67.57531922 4.1001009 69.28763561 4 71 C2.02 71 0.04 71 -2 71 C-2.05144641 63.94233376 -2.08604024 56.88471725 -2.10986328 49.8269043 C-2.11981302 47.43463332 -2.13337762 45.04237414 -2.15087891 42.65014648 C-2.17562031 39.17689062 -2.18659338 35.70379781 -2.1953125 32.23046875 C-2.20563507 31.19109665 -2.21595764 30.15172455 -2.22659302 29.08085632 C-2.2280335 19.16712484 -1.05789839 10.05003468 0 0 Z " fill="#010101" transform="translate(48,28)"/>
<path d="M0 0 C27.06 0 54.12 0 82 0 C82 1.65 82 3.3 82 5 C77.02702703 9 77.02702703 9 74 9 C73.5978125 9.9590625 73.5978125 9.9590625 73.1875 10.9375 C72 13 72 13 69 14 C69.00523682 15.17353027 69.01047363 16.34706055 69.01586914 17.55615234 C69.05917344 28.47170053 69.05060979 39.38585146 69.00068665 50.30137634 C68.98080847 56.51918317 69.03887328 62.72861629 69.1754303 68.94487 C69.90235465 104.26119989 69.90235465 104.26119989 60.21069336 114.44213867 C59.04729741 115.52933448 57.85709479 116.58880578 56.63769531 117.61279297 C54.31998358 119.57600675 52.39715892 121.86385866 50.375 124.125 C45.75050338 128.5276573 40.49169498 131.78819051 35 135 C34.23816406 135.55558594 33.47632813 136.11117187 32.69140625 136.68359375 C29.02933017 138.47476884 25.66099208 138.32490833 21.6875 138.1875 C19.150625 138.125625 16.61375 138.06375 14 138 C14 131.4 14 124.8 14 118 C21.875 117.1875 21.875 117.1875 24.35107422 116.95385742 C26.24834177 116.73691168 28.12661985 116.37031933 30 116 C32.39952054 112.40071919 32.24807618 110.80056286 32.24291992 106.52270508 C32.24481827 105.86831451 32.24671661 105.21392395 32.24867249 104.53970337 C32.25238737 102.36619206 32.24164262 100.19301323 32.23046875 98.01953125 C32.22927424 96.48947692 32.22882436 94.95942184 32.2290802 93.42936707 C32.22751265 90.20538801 32.21922014 86.98151953 32.20581055 83.75756836 C32.18911735 79.70002246 32.18511343 75.64259978 32.18557549 71.58502388 C32.18545712 61.72250199 32.12147805 51.86175542 32 42 C31.98567932 40.72348572 31.97135864 39.44697144 31.956604 38.1317749 C31.90817641 34.75730159 31.83057136 31.38524163 31.73828125 28.01171875 C31.72492233 27.05046585 31.71156342 26.08921295 31.69779968 25.09883118 C31.50932944 19.83301426 31.04123455 16.77605797 27 13 C24.79407275 11.6232385 24.79407275 11.6232385 22.4375 10.75 C21.67308594 10.43546875 20.90867187 10.1209375 20.12109375 9.796875 C15.80459073 8.17520536 11.88003663 7.69764915 7.3125 7.4375 C6.2596582 7.37272461 6.2596582 7.37272461 5.18554688 7.30664062 C3.45724794 7.2008264 1.7286489 7.09993419 0 7 C0 4.69 0 2.38 0 0 Z " fill="#020202" transform="translate(237,167)"/>
<path d="M0 0 C2.52037365 2.25844627 3.82216593 4.38607735 5.19921875 7.46484375 C5.59979492 8.34188965 6.00037109 9.21893555 6.41308594 10.12255859 C6.83364258 11.05148926 7.25419922 11.98041992 7.6875 12.9375 C11.51782711 21.18322617 15.52173498 28.71173552 21 36 C21.44085938 36.63421875 21.88171875 37.2684375 22.3359375 37.921875 C29.69064994 47.63901023 43.38928445 55.91960608 55 59 C57.1561555 59.25466404 59.31462339 59.44921444 61.4765625 59.6484375 C66.09613472 60.29203115 70.53683743 61.67356477 75 63 C72.37351608 67.97649586 69.41260386 71.19579871 64 73 C38.91415646 75.3087856 16.29554644 61.56514485 -2.625 46.75 C-4.09669498 45.51575935 -5.55514113 44.26555085 -7 43 C-7.88171875 42.23816406 -8.7634375 41.47632813 -9.671875 40.69140625 C-18.40113001 33.00915726 -18.40113001 33.00915726 -21 29 C-21.21506202 23.93777084 -17.57515225 20.77242822 -14.375 17.25 C-13.28096021 16.01312497 -12.18850896 14.77484302 -11.09765625 13.53515625 C-10.56672363 12.93461426 -10.03579102 12.33407227 -9.48876953 11.71533203 C-6.93092923 8.76823693 -4.56667496 5.68022179 -2.20703125 2.57421875 C-1 1 -1 1 0 0 Z " fill="#050505" transform="translate(138,206)"/>
<path d="M0 0 C3.99907238 0.6051932 7.79287659 1.43990261 11.66796875 2.59375 C12.72693359 2.90183594 13.78589844 3.20992187 14.87695312 3.52734375 C17.0660115 4.17050072 19.25355034 4.8188547 21.43945312 5.47265625 C26.72175902 7.000147 31.43955004 8.11309741 36.94921875 8.25390625 C39.9113117 8.45404404 41.46008915 8.5621143 43.77905273 10.44287109 C45.27382839 12.36951565 46.45891561 14.2970434 47.625 16.4375 C48.04394531 17.13166016 48.46289062 17.82582031 48.89453125 18.54101562 C51.95749601 23.66082565 53.12712338 26.43775047 53.1328125 32.37109375 C53.13410156 33.66853516 53.13539063 34.96597656 53.13671875 36.30273438 C53.13462402 36.98295654 53.1325293 37.66317871 53.13037109 38.36401367 C53.1251014 40.39835359 53.1302755 42.43246458 53.13671875 44.46679688 C53.12926578 52.03528924 52.86713074 59.47927044 52 67 C49.71186802 64.71186802 49.02035627 62.90498662 47.828125 59.90625 C47.41046875 58.875 46.9928125 57.84375 46.5625 56.78125 C45.70043036 54.6260759 44.84097189 52.46985514 43.984375 50.3125 C37.44017414 34.19141983 30.25243057 24.9811853 14.09765625 17.85839844 C7.54384586 15.17646206 0.75984953 13.09233438 -6 11 C-4.45657029 6.91894938 -2.50065501 3.58427218 0 0 Z " fill="#050505" transform="translate(256,35)"/>
<path d="M0 0 C0.33 0 0.66 0 1 0 C1.95999316 18.17453699 2.12273148 36.30327507 2.0625 54.5 C2.05688102 57.18489435 2.05283811 59.86979033 2.04882812 62.5546875 C2.03797475 69.0364791 2.02137645 75.51823498 2 82 C1.34 82 0.68 82 0 82 C0 84.31 0 86.62 0 89 C-0.66 88.67 -1.32 88.34 -2 88 C-1.34 58.96 -0.68 29.92 0 0 Z " fill="#C2BDB0" transform="translate(306,181)"/>
<path d="M0 0 C1.11739094 3.35217281 0.99087769 5.61450123 0 9 C-1.83255711 12.5778496 -3.87768947 15.4453823 -7 18 C-8.32 18 -9.64 18 -11 18 C-9.56900493 13.88682568 -7.54821899 10.78556175 -4.9375 7.3125 C-2.24079956 3.79692983 -2.24079956 3.79692983 0 0 Z " fill="#252524" transform="translate(110,167)"/>
<path d="M0 0 C2.24658203 -0.34057617 2.24658203 -0.34057617 5.0078125 -0.29296875 C5.99394531 -0.28330078 6.98007813 -0.27363281 7.99609375 -0.26367188 C9.02863281 -0.23853516 10.06117188 -0.21339844 11.125 -0.1875 C12.68541016 -0.16719727 12.68541016 -0.16719727 14.27734375 -0.14648438 C16.85207627 -0.11105228 19.4257833 -0.06165221 22 0 C22 0.99 22 1.98 22 3 C14.08 3 6.16 3 -2 3 C-1.34 2.01 -0.68 1.02 0 0 Z " fill="#1E1E1C" transform="translate(206,302)"/>
<path d="M0 0 C1.125 3.7109375 1.125 3.7109375 0 6.3125 C-2.66834474 9.89808825 -5.76623169 12.9257052 -9 16 C-9 11.86002304 -6.83167083 9.54392969 -4.5 6.3125 C-4.07074219 5.70599609 -3.64148438 5.09949219 -3.19921875 4.47460938 C-2.13906862 2.97861974 -1.07034429 1.488713 0 0 Z " fill="#1E1E1C" transform="translate(98,185)"/>
<path d="M0 0 C5.05531868 0.77774134 10.01716284 1.85948394 15 3 C14.34 4.32 13.68 5.64 13 7 C12.67 6.34 12.34 5.68 12 5 C10.0074653 4.51003245 8.01381493 4.0235222 6.01171875 3.57421875 C3.54414617 2.8698825 1.8828649 1.72595949 0 0 Z " fill="#46443F" transform="translate(198,266)"/>
<path d="M0 0 C0.33 1.32 0.66 2.64 1 4 C0.34 4 -0.32 4 -1 4 C-1 4.99 -1 5.98 -1 7 C-1.66 7 -2.32 7 -3 7 C-3 8.32 -3 9.64 -3 11 C-3.99 11 -4.98 11 -6 11 C-4.54955729 6.89041233 -2.48889248 3.56741255 0 0 Z " fill="#3B3A37" transform="translate(110,167)"/>
<path d="M0 0 C-2.55068845 2.35448165 -3.71017358 2.98327924 -7.25 3.1875 C-8.1575 3.125625 -9.065 3.06375 -10 3 C-8.0130571 -0.97388579 -3.91761109 -0.08705802 0 0 Z " fill="#2C2B28" transform="translate(271,302)"/>
<path d="M0 0 C0.66 0 1.32 0 2 0 C0.44499019 3.81684226 -2.03595495 6.19195732 -5 9 C-3.7580393 5.56072421 -2.44259716 2.74792181 0 0 Z " fill="#B2AEA4" transform="translate(132,210)"/>
</svg>
