<?xml version="1.0" encoding="UTF-8"?>
<svg version="1.1" xmlns="http://www.w3.org/2000/svg" width="1042" height="224">
<path d="M0 0 C9.24 0 18.48 0 28 0 C38.5608507 24.91028517 48.90758166 49.89620637 59 75 C60.49691182 72.75463227 61.63057363 70.80327118 62.74902344 68.38769531 C63.08454727 67.66608719 63.42007111 66.94447906 63.76576233 66.20100403 C64.12665451 65.41795395 64.48754669 64.63490387 64.859375 63.828125 C65.2408519 63.00523483 65.6223288 62.18234467 66.0153656 61.33451843 C67.26294278 58.64091848 68.50662061 55.94553994 69.75 53.25 C70.60582171 51.39914498 71.4616977 49.54831506 72.31762695 47.69750977 C79.64231352 31.84198885 86.85360578 15.9365757 94 0 C103.24 0 112.48 0 122 0 C122 1.32 122 2.64 122 4 C121.22914063 4.18175781 120.45828125 4.36351562 119.6640625 4.55078125 C118.66117187 4.80214844 117.65828125 5.05351563 116.625 5.3125 C115.62726563 5.55613281 114.62953125 5.79976562 113.6015625 6.05078125 C110.6915014 6.82193858 110.6915014 6.82193858 109 10 C108.80614695 12.49125163 108.72689552 14.87017884 108.74121094 17.36132812 C108.7377063 18.10797226 108.73420166 18.85461639 108.73059082 19.62388611 C108.72178492 22.09310185 108.72761855 24.56203132 108.734375 27.03125 C108.73302802 28.746135 108.73108721 30.46101963 108.72857666 32.17590332 C108.72562695 35.77046341 108.72991812 39.36492412 108.73925781 42.95947266 C108.75065228 47.56985637 108.74409199 52.18000722 108.73211288 56.79038239 C108.72489016 60.33166258 108.72718411 63.87288746 108.73236847 67.41416931 C108.73370382 69.11425301 108.73206123 70.8143417 108.72740936 72.51441956 C108.72233735 74.88930591 108.7300637 77.26381375 108.74121094 79.63867188 C108.73716248 80.34317978 108.73311401 81.04768768 108.72894287 81.77354431 C108.76063459 85.41314019 108.92057652 86.88086478 111 90 C113.64047252 91.01752555 113.64047252 91.01752555 116.625 91.6875 C117.62789063 91.93886719 118.63078125 92.19023437 119.6640625 92.44921875 C120.43492187 92.63097656 121.20578125 92.81273437 122 93 C122 94.32 122 95.64 122 97 C108.47 97 94.94 97 81 97 C81.33 95.35 81.66 93.7 82 92 C83.04800781 91.83564453 83.04800781 91.83564453 84.1171875 91.66796875 C85.02726562 91.50941406 85.93734375 91.35085937 86.875 91.1875 C87.77992188 91.03667969 88.68484375 90.88585937 89.6171875 90.73046875 C92.34412478 90.16948699 92.34412478 90.16948699 94 87 C94.29203042 83.82302958 94.29203042 83.82302958 94.22705078 80.1418457 C94.22734283 79.44890411 94.22763489 78.75596252 94.22793579 78.04202271 C94.22654319 75.75314788 94.21098557 73.46459916 94.1953125 71.17578125 C94.19158211 69.58823321 94.18873526 68.00068288 94.18673706 66.41313171 C94.1791026 62.23572426 94.15945575 58.05845599 94.1373291 53.88110352 C94.11686663 49.61802045 94.10773449 45.3549149 94.09765625 41.09179688 C94.07620965 32.72780073 94.042076 24.36391768 94 16 C82.36723301 40.71986539 82.36723301 40.71986539 71 65.5625 C69.81372047 68.18935508 68.62608785 70.81559486 67.4375 73.44140625 C67.15704834 74.06125397 66.87659668 74.68110168 66.58764648 75.31973267 C63.44940097 82.23998089 60.22808564 89.12130762 57 96 C54.65722656 95.82397461 54.65722656 95.82397461 52 95 C50.60058594 92.79907227 50.60058594 92.79907227 49.484375 89.81640625 C49.04601318 88.68082275 48.60765137 87.54523926 48.15600586 86.37524414 C47.68732888 85.10433251 47.21866053 83.8334177 46.75 82.5625 C46.2478739 81.24706612 45.74333452 79.93255128 45.23657227 78.61889648 C44.41037349 76.47669091 43.58573832 74.33400369 42.76783752 72.18861389 C39.33635221 63.19905793 35.70412609 54.29100028 32.08093262 45.37741089 C30.95132059 42.59652364 29.82521568 39.81424176 28.70019531 37.03149414 C27.99679591 35.29311083 27.29334761 33.55474729 26.58984375 31.81640625 C26.27154099 31.0289502 25.95323822 30.24149414 25.62528992 29.43017578 C23.80111746 24.93035358 21.92773347 20.45647706 20 16 C19.95355503 24.48442224 19.91806921 32.9687909 19.89637566 41.45330906 C19.88596117 45.3934791 19.87184488 49.33356183 19.84912109 53.27368164 C19.82730909 57.07974538 19.81541383 60.8857254 19.81024551 64.69184685 C19.80656471 66.14023086 19.79937714 67.58861055 19.78853989 69.03695869 C19.77391351 71.07364751 19.77202665 73.1099952 19.77294922 75.14672852 C19.76628738 76.88213646 19.76628738 76.88213646 19.75949097 78.65260315 C20.02486174 82.34602495 20.7944097 85.50342947 22 89 C25.18619304 91.57346361 30.0738763 92.08390447 34 93 C34 94.32 34 95.64 34 97 C22.78 97 11.56 97 0 97 C0.33 95.35 0.66 93.7 1 92 C1.69867188 91.91363281 2.39734375 91.82726562 3.1171875 91.73828125 C4.02726562 91.59777344 4.93734375 91.45726562 5.875 91.3125 C6.77992188 91.18488281 7.68484375 91.05726563 8.6171875 90.92578125 C11.17020895 90.23085382 11.17020895 90.23085382 12.13275146 87.89147949 C13.17598935 84.41323672 13.25423928 81.44381133 13.25878906 77.81054688 C13.2622937 77.10583755 13.26579834 76.40112823 13.26940918 75.67506409 C13.27817887 73.35619117 13.27239433 71.03762578 13.265625 68.71875 C13.26697302 67.1011957 13.2689147 65.48364179 13.27142334 63.86608887 C13.27436815 60.48018527 13.27009769 57.09438738 13.26074219 53.70849609 C13.249348 49.37412857 13.25591092 45.04000877 13.26788712 40.70565033 C13.2751231 37.36674136 13.2728098 34.02789086 13.26763153 30.6889801 C13.26629985 29.09102855 13.26792587 27.49307164 13.27259064 25.89512634 C13.27768451 23.6597594 13.26990577 21.42479052 13.25878906 19.18945312 C13.25719788 17.91880005 13.25560669 16.64814697 13.25396729 15.33898926 C13.00623533 12.0819779 12.5475769 9.86478459 11 7 C8.38861714 5.74984645 8.38861714 5.74984645 5.375 5.1875 C3.87066406 4.83751953 3.87066406 4.83751953 2.3359375 4.48046875 C1.56507813 4.32191406 0.79421875 4.16335937 0 4 C0 2.68 0 1.36 0 0 Z " fill="#000000" transform="translate(274,38)"/>
<path d="M0 0 C9.24 0 18.48 0 28 0 C31.31106644 6.62213288 34.39063398 13.09571088 37.14453125 19.93359375 C37.51801193 20.85100845 37.89149261 21.76842316 38.27629089 22.71363831 C39.45877521 25.62008649 40.63591484 28.52865938 41.8125 31.4375 C42.97497161 34.30298645 44.13861712 37.16799106 45.30319214 40.03262329 C46.06910964 41.91679776 46.8340315 43.80137728 47.59793091 45.68637085 C49.48066456 50.3204845 51.39031078 54.94034745 53.35693359 59.53955078 C53.73017258 60.41370132 54.10341156 61.28785187 54.48796082 62.18849182 C55.19474058 63.83735999 55.90618024 65.48424111 56.6230011 67.12876892 C59 72.67151085 59 72.67151085 59 76 C59.66 76 60.32 76 61 76 C61.33257813 74.87078125 61.66515625 73.7415625 62.0078125 72.578125 C64.63780646 64.7034873 68.37134916 57.26309702 71.875 49.75 C73.40611522 46.44905792 74.9337189 43.1464964 76.4609375 39.84375 C76.84324524 39.01796448 77.22555298 38.19217896 77.6194458 37.34136963 C81.88722236 28.10876371 86.03128096 18.82151589 90.15185547 9.52246094 C90.64830566 8.40645508 91.14475586 7.29044922 91.65625 6.140625 C92.08744141 5.16641602 92.51863281 4.19220703 92.96289062 3.18847656 C94 1 94 1 95 0 C96.99964982 -0.08758003 99.0023611 -0.10696576 101.00390625 -0.09765625 C102.21884766 -0.09443359 103.43378906 -0.09121094 104.68554688 -0.08789062 C105.96494141 -0.07951172 107.24433594 -0.07113281 108.5625 -0.0625 C109.84576172 -0.05798828 111.12902344 -0.05347656 112.45117188 -0.04882812 C115.63416022 -0.03699545 118.81705762 -0.02051068 122 0 C122 1.32 122 2.64 122 4 C121.22914063 4.14695312 120.45828125 4.29390625 119.6640625 4.4453125 C118.66117188 4.66960938 117.65828125 4.89390625 116.625 5.125 C115.62726563 5.33382812 114.62953125 5.54265625 113.6015625 5.7578125 C110.75976348 6.76571883 110.75976348 6.76571883 109.85357666 9.63366699 C108.93480892 13.25710037 108.74604467 16.36734749 108.74121094 20.10351562 C108.7377063 20.78725754 108.73420166 21.47099945 108.73059082 22.17546082 C108.72184093 24.41916273 108.72759857 26.66254528 108.734375 28.90625 C108.73302641 30.47513896 108.73108426 32.04402751 108.72857666 33.61291504 C108.72563453 36.89449051 108.72989363 40.17595679 108.73925781 43.45751953 C108.75065184 47.65387921 108.74408748 51.84998301 108.73211288 56.04633331 C108.72486962 59.28405672 108.72719352 62.52171993 108.73236847 65.75944519 C108.73369815 67.30633067 108.73208124 68.85322171 108.72740936 70.40010071 C108.72230343 72.56570821 108.73011089 74.73090713 108.74121094 76.89648438 C108.74280212 78.12637085 108.74439331 79.35625732 108.74603271 80.62341309 C109.00421946 84.05609927 109.76774157 86.79852854 111 90 C114.3 90.66 117.6 91.32 121 92 C121.33 93.65 121.66 95.3 122 97 C108.8 97 95.6 97 82 97 C82.33 95.35 82.66 93.7 83 92 C83.69867187 91.91363281 84.39734375 91.82726562 85.1171875 91.73828125 C86.02726563 91.59777344 86.93734375 91.45726562 87.875 91.3125 C88.77992188 91.18488281 89.68484375 91.05726563 90.6171875 90.92578125 C93.17266464 90.23048454 93.17266464 90.23048454 94.13473511 87.87922668 C95.16239527 84.45961892 95.23992325 81.57870059 95.22705078 78.0065918 C95.22734283 77.32311172 95.22763489 76.63963165 95.22793579 75.93544006 C95.22654917 73.68990109 95.21101987 71.44469933 95.1953125 69.19921875 C95.19157999 67.63694948 95.18873414 66.07467785 95.18673706 64.5124054 C95.17911935 60.41064941 95.15948696 56.3090362 95.1373291 52.20733643 C95.11683047 48.01780122 95.10772677 43.82824283 95.09765625 39.63867188 C95.07623922 31.4257159 95.04212588 23.21287574 95 15 C85.37038179 35.40762417 85.37038179 35.40762417 75.9453125 55.91015625 C75.61763382 56.63363754 75.28995514 57.35711884 74.9523468 58.1025238 C73.38841775 61.55930378 71.82967529 65.0183315 70.27709961 68.48022461 C66.09215333 77.77896274 61.61950904 86.9096834 57 96 C55.68 96 54.36 96 53 96 C52.59775963 95.00212967 52.59775963 95.00212967 52.18739319 93.98410034 C49.6154318 87.60391949 47.04291454 81.223963 44.4698267 74.84423637 C43.14813391 71.56717243 41.8266301 68.2900326 40.50561523 65.01269531 C34.04730655 48.99056717 27.56318363 32.9795275 21 17 C20.95365756 25.92738241 20.91812111 34.8547234 20.89637566 43.78219986 C20.88593889 47.92759704 20.87178165 52.07291191 20.84912109 56.21826172 C20.82738889 60.21882689 20.81543057 64.21931291 20.81024551 68.21993256 C20.80655044 69.74615475 20.79933489 71.27237261 20.78853989 72.7985611 C20.77401982 74.93644064 20.77202225 77.07399314 20.77294922 79.21191406 C20.76628738 81.03725677 20.76628738 81.03725677 20.75949097 82.8994751 C20.99055072 85.87818447 21.30314736 87.56627622 23 90 C25.40404738 90.91599427 25.40404738 90.91599427 28.125 91.25 C29.03507813 91.39953125 29.94515625 91.5490625 30.8828125 91.703125 C31.58148437 91.80109375 32.28015625 91.8990625 33 92 C33.33 93.65 33.66 95.3 34 97 C22.78 97 11.56 97 0 97 C0 95.68 0 94.36 0 93 C0.77085937 92.80664062 1.54171875 92.61328125 2.3359375 92.4140625 C3.33882812 92.15367187 4.34171875 91.89328125 5.375 91.625 C6.37273438 91.36976563 7.37046875 91.11453125 8.3984375 90.8515625 C11.12541015 90.17595681 11.12541015 90.17595681 13 88 C13.2087331 85.48711602 13.29366353 83.08346273 13.29052734 80.56860352 C13.29724457 79.80259827 13.30396179 79.03659302 13.31088257 78.24737549 C13.32992602 75.7078203 13.33378985 73.16852846 13.3359375 70.62890625 C13.34236079 68.86775095 13.34908879 67.10659674 13.35610962 65.34544373 C13.3680981 61.65076218 13.37178881 57.95617424 13.37060547 54.26147461 C13.37040214 49.5219804 13.39771182 44.78308487 13.43214989 40.04373264 C13.45436283 36.40550467 13.45844475 32.76742208 13.45738602 29.12913322 C13.45975016 27.38158033 13.46861919 25.63402391 13.48405075 23.88653755 C13.50359922 21.44419277 13.49791775 19.00315586 13.48583984 16.56079102 C13.49707886 15.83601059 13.50831787 15.11123016 13.51989746 14.36448669 C13.47896766 11.11530897 13.43865462 9.4489031 11.11709595 7.07310486 C8.81625211 5.90686263 6.78158737 5.29647994 4.25 4.8125 C3.45078125 4.65394531 2.6515625 4.49539062 1.828125 4.33203125 C1.22484375 4.22246094 0.6215625 4.11289062 0 4 C0 2.68 0 1.36 0 0 Z " fill="#000000" transform="translate(797,38)"/>
<path d="M0 0 C141.24 0 282.48 0 428 0 C428 2.64 428 5.28 428 8 C286.76 8 145.52 8 0 8 C0 5.36 0 2.72 0 0 Z " fill="#000000" transform="translate(0,186)"/>
<path d="M0 0 C139.92 0 279.84 0 424 0 C424 2.64 424 5.28 424 8 C284.08 8 144.16 8 0 8 C0 5.36 0 2.72 0 0 Z " fill="#000000" transform="translate(618,186)"/>
<path d="M0 0 C23.43 0 46.86 0 71 0 C71 6.43499896 70.67372528 7.14594712 67 11.9375 C66.07335176 13.17546269 65.14903947 14.41517595 64.2265625 15.65625 C63.71254883 16.34203125 63.19853516 17.0278125 62.66894531 17.734375 C59.47626978 22.06849275 56.43730424 26.51082487 53.375 30.9375 C51.99374865 32.9272632 50.61223413 34.91684373 49.23046875 36.90625 C48.18511963 38.41251953 48.18511963 38.41251953 47.11865234 39.94921875 C45.01510607 42.97824782 42.90852933 46.00514354 40.80078125 49.03125 C34.80872208 57.6342359 28.81892755 66.23865755 22.875 74.875 C22.25564575 75.77400024 22.25564575 75.77400024 21.6237793 76.69116211 C18.3691428 81.42971588 15.18023687 86.21127362 12 91 C17.26575323 90.93077416 22.53073866 90.84264088 27.79589844 90.73754883 C29.58422271 90.70444965 31.37264768 90.67637174 33.16113281 90.65356445 C35.74327199 90.61974044 38.32450076 90.56741377 40.90625 90.51171875 C41.69616333 90.50532883 42.48607666 90.4989389 43.29992676 90.49235535 C49.93470693 90.31959476 55.53797283 89.07034103 60.75 84.6875 C64.50314325 79.6580353 65.48978095 72.96833294 67 67 C67.65115298 64.66189854 68.32417561 62.33114756 69 60 C70.32 60 71.64 60 73 60 C72.34 72.21 71.68 84.42 71 97 C53.99096354 97.05154253 37.0046605 96.86387971 20 96.5 C17.65234837 96.45159816 15.30469212 96.40342014 12.95703125 96.35546875 C7.30463188 96.23954404 1.65229471 96.1209151 -4 96 C-3.34081501 90.16422321 -1.87221692 86.7851232 1.75 82.25 C2.76461235 80.92408423 3.77620067 79.59585035 4.78515625 78.265625 C5.31512207 77.57017578 5.84508789 76.87472656 6.39111328 76.15820312 C9.10513454 72.51754334 11.64251381 68.75986214 14.1875 65 C19.02122233 57.8874504 23.89674422 50.80613164 28.8125 43.75 C29.47354736 42.80092773 30.13459473 41.85185547 30.81567383 40.87402344 C32.17361529 38.9249819 33.53177225 36.97609049 34.89013672 35.02734375 C38.55421065 29.76993612 42.21465695 24.5100055 45.875 19.25 C46.55925049 18.26741211 47.24350098 17.28482422 47.94848633 16.27246094 C48.89824341 14.90782715 48.89824341 14.90782715 49.8671875 13.515625 C50.42519043 12.71415039 50.98319336 11.91267578 51.55810547 11.08691406 C52.72187671 9.40253943 53.86435631 7.70346553 55 6 C46.01446205 5.8856155 37.04271148 5.98055133 28.0625 6.3125 C27.19987549 6.33497803 26.33725098 6.35745605 25.44848633 6.38061523 C18.56469106 6.67259886 11.48530943 7.3872388 6.5625 12.5625 C4.56790942 16.95059928 3.71301821 21.25279983 3 26 C1.68 26 0.36 26 -1 26 C-1.16362981 17.25489547 -0.58494618 8.7741927 0 0 Z " fill="#000000" transform="translate(9,38)"/>
<path d="M0 0 C24.09 0 48.18 0 73 0 C74.125 13.5 74.125 13.5 74.0625 18.25 C74.05347656 19.16265625 74.04445313 20.0753125 74.03515625 21.015625 C74.02355469 21.67046875 74.01195312 22.3253125 74 23 C72.68 23 71.36 23 70 23 C69.84144531 22.33613281 69.68289063 21.67226563 69.51953125 20.98828125 C68.05330744 15.4393127 66.90432466 11.41170411 62 8 C54.50421148 5.8758112 47.19459908 5.58177758 39.4375 5.375 C35.333125 5.25125 31.22875 5.1275 27 5 C27 17.87 27 30.74 27 44 C40.56919537 43.87083505 40.56919537 43.87083505 47 41 C49.35364197 36.99880865 49.53823932 32.54064672 50 28 C51.9375 27.4375 51.9375 27.4375 54 27 C55 28 55 28 55.11352539 31.60180664 C55.11336625 33.20459856 55.10767063 34.8073956 55.09765625 36.41015625 C55.0962413 37.25219101 55.09482635 38.09422577 55.09336853 38.96177673 C55.08775263 41.66205335 55.07519748 44.36224828 55.0625 47.0625 C55.05748705 48.88867068 55.05292379 50.71484266 55.04882812 52.54101562 C55.03777804 57.02737542 55.02050279 61.51367384 55 66 C53.35 66 51.7 66 50 66 C49.85304688 64.66195312 49.85304688 64.66195312 49.703125 63.296875 C49.55359375 62.12640625 49.4040625 60.9559375 49.25 59.75 C49.11078125 58.58984375 48.9715625 57.4296875 48.828125 56.234375 C47.85026638 52.41519132 47.15417608 51.33199163 44 49 C41.08937408 48.37684283 38.21950614 48.3041701 35.25 48.25 C34.06083984 48.20552734 34.06083984 48.20552734 32.84765625 48.16015625 C30.89897906 48.08972213 28.94948505 48.04256518 27 48 C27.06879874 53.49971814 27.15672648 58.99867027 27.26245117 64.49780273 C27.29572002 66.36881014 27.32374585 68.23991838 27.34643555 70.11108398 C27.37994588 72.79975383 27.43225865 75.48749798 27.48828125 78.17578125 C27.49786613 79.43217155 27.49786613 79.43217155 27.50764465 80.71394348 C27.47852319 85.02431051 27.47852319 85.02431051 29.4102478 88.7028656 C33.87464636 92.34552447 40.75836652 91.22263197 46.1875 91.25 C47.19103516 91.270625 48.19457031 91.29125 49.22851562 91.3125 C55.44380534 91.34485024 61.43283589 91.03622115 67 88 C71.87790821 82.24617996 72.16469537 74.20999787 73 67 C74.32 67 75.64 67 77 67 C77.02733632 69.95839768 77.04699906 72.91653497 77.0625 75.875 C77.07087891 76.69742188 77.07925781 77.51984375 77.08789062 78.3671875 C77.09111328 79.1921875 77.09433594 80.0171875 77.09765625 80.8671875 C77.10289307 81.61081543 77.10812988 82.35444336 77.11352539 83.12060547 C76.94350646 87.43287052 76.46020429 91.7102607 76 96 C68.74864585 96.13230108 61.49726138 96.2627956 54.24583626 96.39115143 C50.87660234 96.45084267 47.50738556 96.51127061 44.13818359 96.57275391 C29.42438784 96.84087439 14.716539 97.08987199 0 97 C0 95.68 0 94.36 0 93 C4.29 92.01 8.58 91.02 13 90 C14.09111611 82.06421609 14.1462916 74.218514 14.1328125 66.21875 C14.13348777 64.79585758 14.13445965 63.37296527 14.13571167 61.95007324 C14.13717815 58.98151542 14.13506806 56.01298787 14.13037109 53.04443359 C14.12467445 49.26216979 14.12795911 45.47997697 14.13394356 41.69771576 C14.13757764 38.76356483 14.13639757 35.82943039 14.13381577 32.89527893 C14.13315436 31.50159191 14.13394705 30.10790334 14.13629532 28.71421814 C14.14592705 21.39338264 13.99780376 14.2571149 13 7 C8.71 6.01 4.42 5.02 0 4 C0 2.68 0 1.36 0 0 Z " fill="#000000" transform="translate(669,38)"/>
<path d="M0 0 C0.82717529 0.00136963 1.65435059 0.00273926 2.5065918 0.00415039 C9.06681448 0.16642188 14.08385211 1.51234258 20.05078125 4.30859375 C22.98536865 5.57457559 25.65298913 6.09397719 28.8125 6.5 C29.1425 4.85 29.4725 3.2 29.8125 1.5 C31.1325 1.5 32.4525 1.5 33.8125 1.5 C33.8125 12.06 33.8125 22.62 33.8125 33.5 C32.4925 33.5 31.1725 33.5 29.8125 33.5 C29.66554688 32.81035156 29.51859375 32.12070313 29.3671875 31.41015625 C27.20365262 22.34569116 24.14115086 15.34791165 16.1875 10.0625 C8.38297539 5.85555655 -0.15834796 4.42085045 -8.8046875 6.6171875 C-15.33040334 9.03491173 -20.79609716 12.8281395 -24.125 19.03515625 C-31.22649473 35.50957968 -32.86275917 58.59773998 -26.1875 75.5 C-22.4121477 83.86222893 -17.41603996 89.2879254 -8.9375 92.875 C1.98255718 94.69500953 11.47754845 93.63711122 20.875 87.5 C24.5119189 83.74576114 25.10557233 80.68071105 25.125 75.5 C25.15013672 73.953125 25.15013672 73.953125 25.17578125 72.375 C24.75170529 69.01887196 24.32847651 67.76132302 21.8125 65.5 C18.41337649 64.3654594 18.41337649 64.3654594 14.625 63.75 C13.35269531 63.50765625 12.08039062 63.2653125 10.76953125 63.015625 C9.79371094 62.84546875 8.81789063 62.6753125 7.8125 62.5 C7.8125 61.18 7.8125 59.86 7.8125 58.5 C22.0025 58.5 36.1925 58.5 50.8125 58.5 C50.8125 59.82 50.8125 61.14 50.8125 62.5 C50.12542969 62.58636719 49.43835938 62.67273438 48.73046875 62.76171875 C43.23400934 63.53290685 43.23400934 63.53290685 38.6875 66.4375 C36.19081307 75.17590426 37.92094966 82.49105042 41.8125 90.5 C39.8325 91.49 39.8325 91.49 37.8125 92.5 C37.11125 91.79875 36.41 91.0975 35.6875 90.375 C33.00026024 88.17389012 33.00026024 88.17389012 30.125 88.875 C27.29353344 90.26402133 24.73193508 91.77066964 22.0625 93.4375 C11.72515601 99.73850401 1.03518531 101.00094394 -10.875 98.8125 C-22.31395131 95.76489618 -31.96499023 88.78403468 -38.5625 78.9375 C-46.58385176 64.23928441 -47.12841119 47.09156263 -42.51171875 31.26953125 C-38.45110672 19.7105619 -30.45032931 10.35539177 -19.65625 4.60546875 C-18.8415625 4.24066406 -18.026875 3.87585937 -17.1875 3.5 C-16.61346436 3.24105957 -16.03942871 2.98211914 -15.44799805 2.71533203 C-10.24474986 0.54467557 -5.61275494 -0.04189908 0 0 Z " fill="#000000" transform="translate(572.1875,36.5)"/>
<path d="M0 0 C1.2065625 0.0309375 1.2065625 0.0309375 2.4375 0.0625 C5.34519275 7.18541809 8.25107752 14.30907199 11.15603638 21.43310547 C12.17414393 23.92947362 13.19295318 26.42555369 14.21237183 28.92138672 C24.21976274 53.42294532 24.21976274 53.42294532 28.39453125 64.1171875 C28.81069199 65.17886642 28.81069199 65.17886642 29.23526001 66.26199341 C30.4534279 69.37157509 31.6602104 72.48405433 32.84667969 75.60595703 C36.39755735 85.01378277 36.39755735 85.01378277 43.89453125 91.3046875 C44.67183594 91.51351562 45.44914062 91.72234375 46.25 91.9375 C47.04019531 92.16179687 47.83039063 92.38609375 48.64453125 92.6171875 C49.23621094 92.76414062 49.82789063 92.91109375 50.4375 93.0625 C50.4375 94.3825 50.4375 95.7025 50.4375 97.0625 C37.5675 97.0625 24.6975 97.0625 11.4375 97.0625 C11.4375 95.7425 11.4375 94.4225 11.4375 93.0625 C14.7375 92.0725 18.0375 91.0825 21.4375 90.0625 C23.3952596 83.87146966 20.95801132 79.45170613 18.5 73.8125 C17.73820867 72.01675818 16.97896158 70.21993422 16.22265625 68.421875 C15.71037476 67.23803223 15.71037476 67.23803223 15.18774414 66.03027344 C14.4375 64.0625 14.4375 64.0625 14.4375 62.0625 C2.2275 62.0625 -9.9825 62.0625 -22.5625 62.0625 C-23.5525 65.0325 -24.5425 68.0025 -25.5625 71.0625 C-26.43571573 73.11394203 -27.32886226 75.15712432 -28.25 77.1875 C-30.22114985 81.80258736 -31.12791659 85.08683403 -30.5625 90.0625 C-26.9325 91.0525 -23.3025 92.0425 -19.5625 93.0625 C-19.5625 94.3825 -19.5625 95.7025 -19.5625 97.0625 C-30.7825 97.0625 -42.0025 97.0625 -53.5625 97.0625 C-53.2325 95.4125 -52.9025 93.7625 -52.5625 92.0625 C-51.89863281 91.91554688 -51.23476562 91.76859375 -50.55078125 91.6171875 C-49.66777344 91.39289063 -48.78476563 91.16859375 -47.875 90.9375 C-46.56982422 90.62425781 -46.56982422 90.62425781 -45.23828125 90.3046875 C-38.4761508 87.16547949 -36.03682836 80.20015402 -33.4453125 73.6796875 C-33.07085999 72.76355179 -32.69640747 71.84741608 -32.31060791 70.90351868 C-31.09302464 67.91875774 -29.89040697 64.9282019 -28.6875 61.9375 C-27.84837396 59.87491585 -27.00803101 57.81282639 -26.16650391 55.7512207 C-24.45768856 51.56290092 -22.75350366 47.37274551 -21.05273438 43.18115234 C-17.71725533 34.97197376 -14.32615014 26.78614844 -10.918396 18.60675049 C-9.94939038 16.27856844 -8.98446547 13.94872628 -8.02001953 11.61865234 C-7.43801048 10.21834759 -6.85582736 8.81811517 -6.2734375 7.41796875 C-5.77118652 6.20778076 -5.26893555 4.99759277 -4.75146484 3.75073242 C-3.12629694 0.07625114 -3.12629694 0.07625114 0 0 Z M-4.5625 17.0625 C-6.68160769 22.27645518 -8.79949845 27.49090234 -10.91625977 32.70581055 C-11.63662775 34.4800352 -12.35732892 36.25412461 -13.07836914 38.02807617 C-14.11431971 40.5769566 -15.14907369 43.12631994 -16.18359375 45.67578125 C-16.50653915 46.46962723 -16.82948456 47.26347321 -17.16221619 48.08137512 C-17.46245193 48.82191635 -17.76268768 49.56245758 -18.07202148 50.32543945 C-18.33627426 50.97607864 -18.60052704 51.62671783 -18.87278748 52.29707336 C-19.48608384 53.86690094 -20.02953743 55.46361228 -20.5625 57.0625 C-9.6725 57.0625 1.2175 57.0625 12.4375 57.0625 C10.45406554 51.72248415 8.45629618 46.38914417 6.4375 41.0625 C5.87554932 39.5779834 5.87554932 39.5779834 5.30224609 38.06347656 C4.10549334 34.9141272 2.89780994 31.76916142 1.6875 28.625 C1.10464233 27.08767212 1.10464233 27.08767212 0.51000977 25.51928711 C0.14061279 24.56546143 -0.22878418 23.61163574 -0.609375 22.62890625 C-0.93776367 21.77240479 -1.26615234 20.91590332 -1.60449219 20.03344727 C-2.39873883 17.89065961 -2.39873883 17.89065961 -4.5625 17.0625 Z " fill="#000000" transform="translate(179.5625,37.9375)"/>
<path d="M0 0 C0.74733398 0.00394775 1.49466797 0.00789551 2.26464844 0.01196289 C8.1786225 0.16579831 12.45422955 1.59067132 17.625 4.4375 C20.48256913 5.19769964 20.48256913 5.19769964 22.625 5.4375 C22.625 4.1175 22.625 2.7975 22.625 1.4375 C24.275 1.4375 25.925 1.4375 27.625 1.4375 C27.625 10.3475 27.625 19.2575 27.625 28.4375 C25.975 28.4375 24.325 28.4375 22.625 28.4375 C22.46644531 27.72464844 22.30789063 27.01179688 22.14453125 26.27734375 C20.37749655 19.02371514 18.73832163 13.18204227 12.32421875 8.90234375 C6.58860402 5.77778277 2.07236445 4.33616778 -4.44140625 5.94921875 C-9.10799852 7.43599677 -11.70910869 9.1720739 -14.375 13.4375 C-16.00027757 18.31333271 -15.92213589 22.65018943 -14.4375 27.5 C-9.20270951 34.9556107 -0.8694022 38.96861971 7.125 42.875 C26.21306319 52.58935687 26.21306319 52.58935687 30.03125 62.82421875 C31.96648693 71.34180759 31.69039505 79.6249713 27.23828125 87.25 C22.74560276 93.34176744 17.14143221 97.91535513 9.625 99.4375 C0.66333463 100.68763827 -6.23797895 97.96074623 -14.375 94.4375 C-19.23785517 92.29819605 -19.23785517 92.29819605 -24.375 91.4375 C-24.705 93.4175 -25.035 95.3975 -25.375 97.4375 C-26.695 97.4375 -28.015 97.4375 -29.375 97.4375 C-29.375 86.2175 -29.375 74.9975 -29.375 63.4375 C-28.055 63.4375 -26.735 63.4375 -25.375 63.4375 C-24.95541016 64.90509766 -24.95541016 64.90509766 -24.52734375 66.40234375 C-21.26431307 77.28466914 -17.41462181 85.66267784 -7.171875 91.5625 C-1.17473515 94.48284636 5.80824728 94.35934635 12.0625 92.3125 C16.51963339 89.05118289 18.6746475 85.53712213 19.5625 80.125 C19.88756217 75.03521081 19.02969875 70.93366408 16.625 66.4375 C10.51853353 59.54102267 2.34821641 55.98078912 -5.79882812 52.06445312 C-14.2464212 47.86025008 -22.99619727 42.72920751 -26.375 33.4375 C-28.43075225 26.19060357 -27.80060787 19.68764437 -24.76953125 12.80078125 C-19.40192788 3.7044226 -10.218159 -0.13904602 0 0 Z " fill="#000000" transform="translate(1003.375,36.5625)"/>
<path d="M0 0 C3.3390052 1.39772311 4.75226927 2.64121756 6.8125 5.625 C8.9382472 11.6665973 8.74423583 16.7922145 6.375 22.75 C3.77977414 28.02327808 -0.34013 32.05441969 -6 34 C-9.25 34.125 -9.25 34.125 -12 34 C-12 33.34 -12 32.68 -12 32 C-10.783125 31.67 -9.56625 31.34 -8.3125 31 C-3.20327264 29.13962414 -1.32937321 25.71474098 1 21 C-0.216875 21.2475 -1.43375 21.495 -2.6875 21.75 C-6.16844922 22.20054839 -6.78285829 22.13398105 -9.9375 20.1875 C-13.04437702 16.89232741 -13.33856258 14.63906953 -13.2890625 10.1015625 C-12.82122304 6.70024318 -11.15733871 4.58880645 -9 2 C-5.4913604 -0.33909307 -4.12910567 -0.41291057 0 0 Z M-6 3 C-8.48386059 6.72579089 -8.3804212 8.58711402 -8 13 C-6.7128694 15.96040038 -5.90193468 17.50539066 -3.0625 19.0625 C-0.83847112 19.16781506 -0.83847112 19.16781506 1.3125 17.5625 C3.44929111 14.31774313 3.2439738 12.62643519 2.54296875 8.90625 C1.80564707 6.31766742 1.05761423 4.76366934 -1 3 C-3.54290625 2.41649495 -3.54290625 2.41649495 -6 3 Z " fill="#000000" transform="translate(503,171)"/>
<path d="M0 0 C0 0.66 0 1.32 0 2 C-1.051875 2.37125 -2.10375 2.7425 -3.1875 3.125 C-7.39719209 4.91326351 -9.39000312 7.28273171 -12 11 C-12 11.66 -12 12.32 -12 13 C-10.7625 12.9175 -9.525 12.835 -8.25 12.75 C-4.99127351 12.73846468 -4.25250571 12.80576484 -1.5625 14.875 C1.30246266 18.77134922 1.08823914 21.05942096 0.515625 25.73828125 C-0.20938665 28.91844601 -1.68434813 30.7545194 -4 33 C-7.10048928 34.55024464 -9.57894218 34.28992015 -13 34 C-16.53424079 31.80091684 -18.44887262 29.82656974 -20 26 C-20.94231824 18.94357037 -20.28487967 12.80106786 -16 7 C-11.45681317 2.12074182 -6.69413805 -0.38252217 0 0 Z M-13.25 16 C-15.30871099 17.97998383 -15.30871099 17.97998383 -15.4375 21.3125 C-14.96964745 25.25582861 -14.19927914 27.70108128 -12 31 C-10.0745356 32.1490712 -10.0745356 32.1490712 -8 32 C-4.60254777 30.22920558 -4.60254777 30.22920558 -4.125 26.25 C-3.7540252 22.09356805 -4.55166319 19.4614417 -7 16 C-9.642324 14.55098361 -10.50913664 14.78183851 -13.25 16 Z " fill="#000000" transform="translate(592,171)"/>
<path d="M0 0 C0.74886475 0.00523682 1.49772949 0.01047363 2.26928711 0.01586914 C3.07817383 0.0190918 3.88706055 0.02231445 4.72045898 0.02563477 C5.5705957 0.03401367 6.42073242 0.04239258 7.29663086 0.05102539 C8.15063477 0.05553711 9.00463867 0.06004883 9.88452148 0.06469727 C12.00108749 0.07652166 14.11761771 0.0944577 16.23413086 0.11352539 C14.35847297 7.56940859 12.12456289 14.91305994 9.79663086 22.23852539 C9.36435181 23.66201294 9.36435181 23.66201294 8.92333984 25.11425781 C8.63531494 26.00346924 8.34729004 26.89268066 8.05053711 27.80883789 C7.67070679 29.01564209 7.67070679 29.01564209 7.28320312 30.24682617 C6.23413086 32.11352539 6.23413086 32.11352539 4.12060547 32.88256836 C3.18680054 32.99689209 3.18680054 32.99689209 2.23413086 33.11352539 C3.59479896 26.35828934 5.52123059 20.02776944 7.85913086 13.55102539 C8.18397461 12.63772461 8.50881836 11.72442383 8.84350586 10.78344727 C9.63566715 8.55840598 10.43259676 6.33520364 11.23413086 4.11352539 C9.31623373 4.39698817 7.39983903 4.69062819 5.48413086 4.98852539 C4.41678711 5.15094727 3.34944336 5.31336914 2.24975586 5.48071289 C-0.44295785 6.04576421 -2.40159353 6.74775453 -4.76586914 8.11352539 C-2.59865238 0.16706392 -2.59865238 0.16706392 0 0 Z " fill="#000000" transform="translate(535.765869140625,171.886474609375)"/>
<path d="M0 0 C0.01458252 0.89307861 0.02916504 1.78615723 0.04418945 2.70629883 C0.10527077 6.02217278 0.17942478 9.33721899 0.26245117 12.65258789 C0.29569001 14.08704628 0.32372535 15.52163513 0.34643555 16.95629883 C0.38000271 19.01960807 0.43231413 21.08172303 0.48828125 23.14453125 C0.51446533 24.38565674 0.54064941 25.62678223 0.56762695 26.90551758 C0.72961826 30.33207299 0.72961826 30.33207299 4 33 C0.04 33 -3.92 33 -8 33 C-7.01 32.01 -6.02 31.02 -5 30 C-4.58589567 27.2905528 -4.58589567 27.2905528 -4.70703125 24.23828125 C-4.71669922 23.12001953 -4.72636719 22.00175781 -4.73632812 20.84960938 C-4.76146484 19.68236328 -4.78660156 18.51511719 -4.8125 17.3125 C-4.82603516 16.13365234 -4.83957031 14.95480469 -4.85351562 13.74023438 C-4.88890674 10.82636589 -4.93828191 7.91341055 -5 5 C-6.32 4.67 -7.64 4.34 -9 4 C-2.25 0 -2.25 0 0 0 Z " fill="#000000" transform="translate(462,171)"/>
</svg>
